<?xml version="1.0" encoding="UTF-8"?>
<svg width="335px" height="58px" viewBox="0 0 335 58" version="1.1" xmlns="http://www.w3.org/2000/svg" xmlns:xlink="http://www.w3.org/1999/xlink">
    <title>5260F492-13F7-46F6-9ED6-321335B3B5C8</title>
    <g id="iPhone-XS" stroke="none" stroke-width="1" fill="none" fill-rule="evenodd">
        <g id="EATPIZZA" transform="translate(-20.000000, -473.000000)">
            <g id="Group-3" transform="translate(20.000000, 473.000208)">
                <path d="M329.412815,50.3070228 L327.628351,42.8700649 C327.563936,42.6015405 327.729399,42.3316399 327.997924,42.2672249 C328.266448,42.20281 328.536349,42.3682733 328.600764,42.6367977 L330.648368,51.1740963 L330.907803,51.3562486 L330.739522,51.594259 C330.763451,51.6463 330.778777,51.7033679 330.783549,51.7637965 C330.805285,52.0390821 330.599742,52.2798656 330.324457,52.3016016 L320.800631,53.0535838 C320.525346,53.0753198 320.284562,52.8697772 320.262826,52.5944916 C320.24109,52.319206 320.446633,52.0784225 320.721918,52.0566865 L329.210096,51.3851226 C298.616856,29.987668 264.243322,14.9215956 227.807122,7.00031839 L229,7 L229.000035,6.23811907 C265.055065,14.211016 299.078865,29.162391 329.412815,50.3070228 Z M109.000089,5.58767211 L108.999323,6.60966745 C72.2196824,14.3501406 37.5034799,29.3576968 6.60666604,50.8025223 L5.80336796,51.3626909 L14.5735754,52.0566865 C14.8182737,52.0760073 15.0078664,52.2684029 15.0317112,52.5042608 L15.0326675,52.5944916 C15.0133466,52.8391899 14.8209511,53.0287826 14.5850932,53.0526275 L14.4948624,53.0535838 L4.97103684,52.3016016 C4.69575125,52.2798656 4.49020869,52.0390821 4.51194469,51.7637965 C4.51690371,51.7009906 4.53326451,51.6418149 4.55883552,51.5881403 L4.56228846,51.5379225 L4.56228846,51.5379225 L4.57167817,51.4870874 L4.67336796,51.0600963 L4.61359145,50.9750318 C4.64586121,50.9523418 4.67813518,50.929659 4.71041336,50.9069831 L6.69472978,42.6367977 C6.75914474,42.3682733 7.02904537,42.20281 7.29756972,42.2672249 C7.53625802,42.3244827 7.69351542,42.5440995 7.68027406,42.7807896 L7.66714245,42.8700649 L5.94535083,50.0442838 C37.0325726,28.4493775 71.9769589,13.3504525 109.000089,5.58767211 Z" id="Combined-Shape" fill="#FFFFFF" fill-rule="nonzero" opacity="0.173376"></path>
                <g id="Group-2" transform="translate(8.000000, 49.779737) rotate(-396.000000) translate(-8.000000, -49.779737) translate(4.000000, 42.779737)"></g>
                <g id="Group-2" transform="translate(327.295493, 49.779737) scale(-1, 1) rotate(-396.000000) translate(-327.295493, -49.779737) translate(323.295493, 42.779737)"></g>
            </g>
        </g>
    </g>
</svg>